# xmcd
#
# Track frame offsets:
#	150
#	9536
#	21257
#	33962
#	46602
#	56137
#	67766
#	78201
#	90109
#	101532
#	115642
#	128609
#	136935
#	150874
#
# Disc length: 2150 seconds
#
# Revision: 1
# Processed by: cddbd v1.5.1PL0 Copyright (c) Steve Scherf et al.
# Submitted via: audiograbber 1.83.01
#
DISCID=8f08640e
DTITLE=Ed Beerens and the Black Devils - Let's Dance
DYEAR=1900
DGENRE=
TTITLE0=Jump Up Again
TTITLE1=You Better Move On
TTITLE2=Let's Dance
TTITLE3=Treu Fine Suzy
TTITLE4=Every Day
TTITLE5=Joe's Theme
TTITLE6=Jumping On a Saterday Night
TTITLE7=This Time
TTITLE8=Peggy Sue
TTITLE9=The Woman I Love
TTITLE10=Treu Love Ways
TTITLE11=Oh Boy
TTITLE12=Right Now
TTITLE13=Nina Bobo (instr)
EXTD=
EXTT0=
EXTT1=
EXTT2=
EXTT3=
EXTT4=
EXTT5=
EXTT6=
EXTT7=
EXTT8=
EXTT9=
EXTT10=
EXTT11=
EXTT12=
EXTT13=
PLAYORDER=
